<?xml version="1.0" encoding="UTF-8" standalone="no"?>
<!-- Created with Inkscape (http://www.inkscape.org/) -->

<svg
   xmlns:dc="http://purl.org/dc/elements/1.1/"
   xmlns:cc="http://creativecommons.org/ns#"
   xmlns:rdf="http://www.w3.org/1999/02/22-rdf-syntax-ns#"
   xmlns:svg="http://www.w3.org/2000/svg"
   xmlns="http://www.w3.org/2000/svg"
   xmlns:sodipodi="http://sodipodi.sourceforge.net/DTD/sodipodi-0.dtd"
   xmlns:inkscape="http://www.inkscape.org/namespaces/inkscape"
   width="228.26393"
   height="38.737831"
   id="svg2"
   version="1.1"
   inkscape:version="0.48.5 r10040"
   sodipodi:docname="comrade-header.svg">
  <defs
     id="defs4" />
  <sodipodi:namedview
     id="base"
     pagecolor="#ffffff"
     bordercolor="#666666"
     borderopacity="1.0"
     inkscape:pageopacity="0.0"
     inkscape:pageshadow="2"
     inkscape:zoom="3.959798"
     inkscape:cx="71.78514"
     inkscape:cy="1.7698524"
     inkscape:document-units="px"
     inkscape:current-layer="layer1"
     showgrid="false"
     fit-margin-top="0"
     fit-margin-left="0"
     fit-margin-right="0"
     fit-margin-bottom="0"
     inkscape:window-width="1680"
     inkscape:window-height="980"
     inkscape:window-x="0"
     inkscape:window-y="25"
     inkscape:window-maximized="1" />
  <metadata
     id="metadata7">
    <rdf:RDF>
      <cc:Work
         rdf:about="">
        <dc:format>image/svg+xml</dc:format>
        <dc:type
           rdf:resource="http://purl.org/dc/dcmitype/StillImage" />
        <dc:title />
      </cc:Work>
    </rdf:RDF>
  </metadata>
  <g
     inkscape:label="Layer 1"
     inkscape:groupmode="layer"
     id="layer1"
     transform="translate(-46.012805,-303.87073)">
    <g
       id="g3020"
       transform="matrix(5.4824901,0,0,5.4824901,-206.25191,-1448.9184)">
      <path
         inkscape:connector-curvature="0"
         id="path2990"
         d="m 50.772881,324.76801 c 0,0.54362 0,1.08723 0,1.63085 -0.940693,0.43238 -2.076782,0.52044 -3.036987,0.0998 -0.967443,-0.43607 -1.565084,-1.4503 -1.680618,-2.48101 -0.12278,-1.08793 -0.0035,-2.28305 0.678278,-3.18005 0.534511,-0.72677 1.433827,-1.10722 2.320972,-1.12471 0.585262,-0.0188 1.192655,0.0497 1.718355,0.32371 0,0.52734 0,1.05469 0,1.58203 -0.528098,-0.23224 -1.150951,-0.28291 -1.703763,-0.10765 -0.574442,0.18809 -0.935021,0.76501 -0.991852,1.34794 -0.07014,0.63617 -0.0092,1.37557 0.495777,1.83063 0.524213,0.44591 1.277364,0.34335 1.890756,0.17499 0.103955,-0.0291 0.206957,-0.0615 0.309082,-0.0965"
         style="font-size:10px;font-style:normal;font-variant:normal;font-weight:bold;font-stretch:normal;line-height:125%;letter-spacing:0px;word-spacing:0px;fill:#ff0000;fill-opacity:1;stroke:none;font-family:Humanst521 XBdCn BT;-inkscape-font-specification:Humanst521 XBdCn BT Bold" />
      <path
         inkscape:connector-curvature="0"
         id="path2992"
         d="m 53.521904,323.23969 c 0.01469,0.59423 0.02413,1.24994 0.393904,1.74728 0.270125,0.35879 0.877114,0.29944 1.084919,-0.0952 0.346797,-0.60223 0.326778,-1.33052 0.314865,-2.00346 -0.03694,-0.51613 -0.08235,-1.09748 -0.462418,-1.48834 -0.314303,-0.30116 -0.868812,-0.15765 -1.041049,0.23031 -0.261568,0.49047 -0.281449,1.06584 -0.290221,1.60942 z m -2.041016,0 c -0.01226,-1.02045 0.279661,-2.10374 1.048651,-2.81627 0.768861,-0.74182 1.974503,-0.88848 2.954451,-0.52895 1.026272,0.39406 1.665789,1.4394 1.816568,2.49494 0.161218,1.12006 0.04857,2.36031 -0.652568,3.28987 -0.489093,0.678 -1.305943,1.09067 -2.141165,1.08974 -0.836024,0.039 -1.68701,-0.30889 -2.21539,-0.96586 -0.598167,-0.70745 -0.815427,-1.6552 -0.810547,-2.56347 z"
         style="font-size:10px;font-style:normal;font-variant:normal;font-weight:bold;font-stretch:normal;line-height:125%;letter-spacing:0px;word-spacing:0px;fill:#ff0000;fill-opacity:1;stroke:none;font-family:Humanst521 XBdCn BT;-inkscape-font-specification:Humanst521 XBdCn BT Bold" />
      <path
         inkscape:connector-curvature="0"
         id="path2994"
         d="m 58.248466,326.64789 c 0,-2.27702 0,-4.55404 0,-6.83106 0.729167,0 1.458333,0 2.1875,0 0.321475,0.74724 0.694629,1.47417 0.942383,2.25098 0.199164,-0.67634 0.519247,-1.30801 0.784006,-1.95986 0.05212,-0.0901 0.07153,-0.2298 0.142688,-0.29112 0.724631,0 1.449261,0 2.173892,0 0,2.27702 0,4.55404 0,6.83106 -0.610351,0 -1.220703,0 -1.831054,0 0.0055,-1.22332 -0.01216,-2.447 0.01122,-3.67004 -0.02002,-0.11059 0.09637,-0.61843 0.02494,-0.49189 -0.441742,0.91368 -0.883485,1.82735 -1.325227,2.74103 -0.447591,-0.93587 -0.895182,-1.87175 -1.342773,-2.80762 0.129859,0.87441 0.06876,1.75968 0.083,2.64006 0,0.52949 0,1.05897 0,1.58846 -0.616862,0 -1.233724,0 -1.850586,0 z"
         style="font-size:10px;font-style:normal;font-variant:normal;font-weight:bold;font-stretch:normal;line-height:125%;letter-spacing:0px;word-spacing:0px;fill:#ff0000;fill-opacity:1;stroke:none;font-family:Humanst521 XBdCn BT;-inkscape-font-specification:Humanst521 XBdCn BT Bold" />
      <path
         inkscape:connector-curvature="0"
         id="path2996"
         d="m 67.599052,322.71722 c 0.286426,0.0129 0.624211,-0.003 0.796585,-0.27114 0.195047,-0.3089 0.197357,-0.73787 0.02331,-1.05614 -0.176277,-0.27542 -0.527684,-0.28224 -0.819892,-0.27428 0,0.53385 0,1.06771 0,1.60156 z m -1.967773,3.93067 c 0,-2.27702 0,-4.55404 0,-6.83106 0.915412,0.005 1.831191,-0.01 2.746352,0.008 0.675583,0.0278 1.424325,0.27596 1.76625,0.9045 0.280163,0.53663 0.322942,1.19484 0.143234,1.77029 -0.14084,0.42609 -0.518135,0.74094 -0.944899,0.85731 0.443671,0.0806 0.713607,0.49305 0.82275,0.90089 0.196794,0.68259 0.298523,1.3878 0.444895,2.08223 0.02016,0.10263 0.04032,0.20527 0.06048,0.3079 -0.677083,0 -1.354167,0 -2.03125,0 -0.09547,-0.71483 -0.159867,-1.43439 -0.283633,-2.14496 -0.03661,-0.29244 -0.193632,-0.64127 -0.537061,-0.63992 -0.200002,-0.0567 -0.251497,0.0543 -0.219343,0.2275 0,0.85253 0,1.70507 0,2.55761 -0.655924,0 -1.311849,0 -1.967773,0"
         style="font-size:10px;font-style:normal;font-variant:normal;font-weight:bold;font-stretch:normal;line-height:125%;letter-spacing:0px;word-spacing:0px;fill:#ff0000;fill-opacity:1;stroke:none;font-family:Humanst521 XBdCn BT;-inkscape-font-specification:Humanst521 XBdCn BT Bold" />
      <path
         inkscape:connector-curvature="0"
         id="path2998"
         d="m 73.282646,324.08929 c 0.30599,0 0.611979,0 0.917969,0 -0.155247,-0.81217 -0.363932,-1.61618 -0.439446,-2.4414 -0.09197,0.8251 -0.312885,1.62919 -0.478519,2.4414 z m -2.631832,2.5586 c 0.673828,-2.27702 1.347657,-4.55404 2.021485,-6.83106 0.743815,0 1.48763,0 2.231445,0 0.633138,2.27702 1.266276,4.55404 1.899414,6.83106 -0.677083,0 -1.354167,0 -2.03125,0 -0.07975,-0.34994 -0.159505,-0.69987 -0.239258,-1.04981 -0.533854,0 -1.067708,0 -1.601562,0 -0.08301,0.34994 -0.166016,0.69987 -0.249024,1.04981 -0.677083,0 -1.354167,0 -2.03125,0 z"
         style="font-size:10px;font-style:normal;font-variant:normal;font-weight:bold;font-stretch:normal;line-height:125%;letter-spacing:0px;word-spacing:0px;fill:#ff0000;fill-opacity:1;stroke:none;font-family:Humanst521 XBdCn BT;-inkscape-font-specification:Humanst521 XBdCn BT Bold" />
      <path
         inkscape:connector-curvature="0"
         id="path3000"
         d="m 79.220146,321.30609 c 0,1.28092 0,2.56185 0,3.84277 0.320825,-0.009 0.689295,0.0579 0.939711,-0.19645 0.43556,-0.44932 0.480348,-1.12003 0.490953,-1.71272 -0.01062,-0.58349 -0.04683,-1.23554 -0.45088,-1.69588 -0.251127,-0.29165 -0.639335,-0.23203 -0.979784,-0.23772 z m -1.967773,5.3418 c 0,-2.27702 0,-4.55404 0,-6.83106 0.906346,0.005 1.813078,-0.01 2.719158,0.008 0.803507,0.0328 1.604579,0.4043 2.074651,1.07011 0.624613,0.85821 0.712369,1.98156 0.60779,3.00612 -0.09327,0.91624 -0.526135,1.84867 -1.335304,2.33912 -0.575356,0.36388 -1.272391,0.42792 -1.937181,0.40777 -0.709705,0 -1.419409,0 -2.129114,0 z"
         style="font-size:10px;font-style:normal;font-variant:normal;font-weight:bold;font-stretch:normal;line-height:125%;letter-spacing:0px;word-spacing:0px;fill:#ff0000;fill-opacity:1;stroke:none;font-family:Humanst521 XBdCn BT;-inkscape-font-specification:Humanst521 XBdCn BT Bold" />
      <path
         inkscape:connector-curvature="0"
         id="path3002"
         d="m 83.580498,326.64789 c 0,-2.27702 0,-4.55404 0,-6.83106 1.355794,0 2.711589,0 4.067383,0 0,0.49317 0,0.98633 0,1.4795 -0.69987,0 -1.39974,0 -2.09961,0 0,0.3776 0,0.75521 0,1.13281 0.673828,0 1.347657,0 2.021485,0 0,0.48991 0,0.97981 0,1.46972 -0.673828,0 -1.347657,0 -2.021485,0 0,0.41667 0,0.83333 0,1.25 0.69987,0 1.39974,0 2.09961,0 0,0.49968 0,0.99935 0,1.49903 -1.355794,0 -2.711589,0 -4.067383,0 z"
         style="font-size:10px;font-style:normal;font-variant:normal;font-weight:bold;font-stretch:normal;line-height:125%;letter-spacing:0px;word-spacing:0px;fill:#ff0000;fill-opacity:1;stroke:none;font-family:Humanst521 XBdCn BT;-inkscape-font-specification:Humanst521 XBdCn BT Bold" />
    </g>
  </g>
</svg>
