<svg xmlns="http://www.w3.org/2000/svg" viewBox="0 0 28.677076 35" width="28.677" height="35"><g clip-rule="evenodd" fill-rule="evenodd"><path d="M27.653 28.84L23.688 3.064c0-.57-.462-1.032-1.032-1.032h-2.062v-.514c0-.284-.232-.516-.516-.516-.284 0-.515.232-.515.516v.515H17.5v-.514c0-.284-.232-.516-.516-.516-.284 0-.515.232-.515.516v.515h-2.064v-.514c0-.284-.23-.516-.515-.516-.283 0-.515.232-.515.516v.515h-2.062v-.514c0-.284-.232-.516-.516-.516-.284 0-.516.232-.516.516v.515H8.22v-.514c0-.284-.233-.516-.517-.516-.284 0-.515.232-.515.516v.515H5.125v-.514c0-.284-.232-.516-.516-.516-.285 0-.516.232-.516.516v.515H2.03C1.463 2.03 1 2.494 1 3.064V32.97c0 .568.462 1.03 1.03 1.03h20.626c.57 0 1.032-.462 1.032-1.03v-3.095h3.093c.352 0 1.033 0 .873-1.034zm-4.997 4.13H2.03V3.062h2.064V4.61c0 .283.23.515.515.515.283 0 .515-.232.515-.516V3.062h2.063V4.61c0 .283.23.515.515.515.284 0 .516-.232.516-.516V3.062h2.06V4.61c0 .283.233.515.517.515.284 0 .516-.232.516-.516V3.062h2.062V4.61c0 .283.232.515.516.515.285 0 .516-.232.516-.516V3.062h2.063V4.61c0 .283.23.515.514.515.284 0 .516-.232.516-.516V3.062h2.063V4.61c0 .283.23.515.515.515.284 0 .516-.232.516-.516V3.062h2.062V32.97zm1.032-4.126v-19l2.923 19H23.69z"/><path d="M19.047 9.25H5.64c-.283 0-.515.232-.515.516 0 .284.232.515.516.515h13.407c.284 0 .515-.23.515-.514 0-.284-.23-.516-.515-.516zM19.047 13.375H5.64c-.283 0-.515.232-.515.515 0 .285.232.516.516.516h13.407c.284 0 .515-.23.515-.516 0-.283-.23-.515-.515-.515zM19.047 17.5H5.64c-.283 0-.515.232-.515.516 0 .283.232.515.516.515v.002h13.407c.284 0 .515-.233.515-.516 0-.284-.23-.516-.515-.516zM19.047 21.625H5.643h-.002c-.283 0-.515.23-.515.516 0 .285.232.516.516.516h13.407c.284 0 .516-.23.516-.515 0-.284-.232-.515-.516-.515zM15.953 25.75H5.64c-.283 0-.515.232-.515.515 0 .285.232.516.516.516h10.313c.284 0 .516-.23.516-.515 0-.283-.233-.515-.517-.515z"/></g></svg>