<svg xmlns="http://www.w3.org/2000/svg" viewBox="0 0 100 100"><path style="text-indent:0;text-transform:none;block-progression:tb" d="M49.973 5C25.193 5 5 25.192 5 49.973 5 74.753 25.192 95 49.973 95 74.753 95 95 74.754 95 49.973 95 25.193 74.754 5 49.973 5zm0 11.8c18.386 0 33.172 14.787 33.172 33.173 0 18.386-14.786 33.172-33.172 33.172-18.386 0-33.172-14.786-33.172-33.172C16.8 31.587 31.588 16.8 49.974 16.8zm-15.39 13.65a5.482 5.482 0 0 0-3.263 9.408l10.496 10.495L31.32 60.85a5.5 5.5 0 1 0 7.777 7.775L49.592 58.13l10.496 10.495a5.482 5.482 0 1 0 7.722-7.776L57.314 50.352 67.81 39.858a5.482 5.482 0 0 0-3.97-9.408 5.482 5.482 0 0 0-3.752 1.686L49.592 42.63 39.097 32.137a5.482 5.482 0 0 0-3.97-1.686 5.482 5.482 0 0 0-.544 0z" overflow="visible" color="#000"/></svg>