<svg xmlns="http://www.w3.org/2000/svg" viewBox="0 0 17.999998 18" width="18" height="18"><path d="M10.103 10.24c-.26-.203-.662-.145-.896.125l-.952 1.105-.13-.12L9.33 9.955c.234-.27.212-.657-.047-.858-.258-.2-.662-.143-.895.127l-1.127 1.307-.128-.12 1.246-1.445c.234-.27.213-.656-.047-.858-.26-.202-.664-.145-.897.127L6.26 9.594l-.13-.123c.01-.007.018-.014.026-.023l2.94-3.406c.232-.27.21-.656-.048-.857-.26-.2-.663-.143-.896.127L5.25 8.673 5.153 8.6l.617-1.57c.13-.327-.032-.69-.356-.804-.325-.115-.697.06-.826.387l-1.394 3.54-.23.583c-.035.09-.047.182-.04.27-.257 1.093-.015 1.638-.015 1.638l2.457 1.903c1.972-.32 3.24-1.663 3.24-1.663l1.544-1.787c.235-.27.213-.658-.047-.858z" stroke-miterlimit="10" fill="none" stroke="#000" stroke-width=".7" stroke-linecap="round" stroke-linejoin="round"/><path d="M9.677 9.86h6.074c.423 0 .77-.33.77-.73V2.06c0-.4-.347-.727-.77-.727H4.017c-.423 0-.77.328-.77.728v6.707M6.875 14.13h9.792v-3.213h-6.354" stroke-miterlimit="10" fill="none" stroke="#000" stroke-linecap="round" stroke-linejoin="round"/><path d="M14.902 13.124c-.35 0-.634-.27-.634-.6 0-.332.284-.6.634-.6.35 0 .633.268.633.6 0 .332-.283.6-.633.6z" fill="none" stroke="#000" stroke-width=".667" stroke-linecap="round" stroke-linejoin="round" stroke-miterlimit="10"/><path d="M1.333 14.277l3.052 2.39 1.325-1.53-3.153-2.366-1.224 1.507z" stroke-miterlimit="10" fill="none" stroke="#000" stroke-linecap="round" stroke-linejoin="round"/></svg>