<svg xmlns="http://www.w3.org/2000/svg" viewBox="0 0 100 100"><path d="M35.656 70.1h28.558v1.7H35.656zM34.084 77.248h31.702v1.7H34.084zM32.25 84.396h35.633v1.7H32.25z"/><path fill="none" d="M70.34 65.06H29.603l-1.144 10.1-1.81 15.978h46.887l-1.96-15.978M70.24 28.93V12.172H29.694V38.25H70.24"/><path fill="none" d="M70.24 28.93V12.172H29.694V38.25H70.24"/><circle fill="none" cx="15.056" cy="35.562" r="2.633"/><path fill="none" d="M70.34 65.06H29.603l-1.144 10.1-1.81 15.978h46.887l-1.96-15.978"/><circle fill="none" cx="15.056" cy="35.562" r="2.633"/><path fill="none" d="M70.24 28.93V12.172H29.694V38.25H70.24M70.34 65.06H29.603l-1.144 10.1-1.81 15.978h46.887l-1.96-15.978"/><path d="M88.055 28.93H71.94V10.47H27.994V28.93H11.88c-2.067 0-3.743 1.675-3.743 3.742v38.746c0 2.066 1.676 3.743 3.743 3.743h14.868l-2 17.68H75.46l-2.17-17.68h14.765c2.067 0 3.743-1.677 3.743-3.743V32.67c0-2.066-1.676-3.74-3.743-3.74zm-73 9.265c-1.453 0-2.632-1.18-2.632-2.633s1.18-2.633 2.633-2.633 2.633 1.178 2.633 2.632-1.18 2.633-2.634 2.633zm14.64-9.266V12.172H70.24V38.25H29.694v-9.32zm43.842 62.208H26.65l1.81-15.978 1.144-10.102H70.34l1.237 10.102 1.96 15.978z"/></svg>