<svg xmlns="http://www.w3.org/2000/svg" width="360" height="334.99" viewBox="0 0 360 334.99"><path d="M67.892 81.42s5.737 22.126 6.555 29.503c.82 7.375-14.75 23.765-14.75 31.96 0 8.197 3.273 22.948 21.305 30.325 18.032 7.376 20.488 26.224 20.488 37.7 0 11.473-6.555 33.598-6.555 33.598s-4.096 54.908 18.03 64.742c22.124 9.833 17.21 9.833 22.124 9.833 4.914 0 40.975 14.757 62.28 9.02 21.31-5.737 27.04-12.292 27.04-12.292s21.31 1.637 27.867-17.214c6.56-18.847 10.654-58.183 8.195-76.214-2.46-18.033-5.736-41.795 9.014-49.992 14.755-8.196 30.324-18.027 27.865-26.224-2.46-8.196-15.567-19.67-15.567-19.67s-3.28-20.486-.822-25.404c2.458-4.917 17.21-17.213 9.015-26.226-8.19-9.014-22.947-9.014-22.947-9.014l-18.848 1.637s-31.96-28.682-73.757-27.043c-41.794 1.64-68.02 27.043-68.02 27.043s-13.93-4.917-26.225 0c-12.294 4.92-14.745 0-12.288 13.932z" fill="#FBA919"/><path fill="#E78724" d="M142.775 203.437s-16.23 24.815-28.133 42.425c-1.842 2.724 11.904 2.913 11.904 2.913l16.23-45.338zm7.727-51.447s-4.892 12.204-7.572 18.674c-2.91 7.034-14 10.533-14 10.533s5.75-6.03 5.75-21.306c0-6.407 8.273-8.955 8.273-8.955l7.55 1.055z"/><path d="M75.26 31.4s17.18-3.344 28.634 5.725c11.458 9.067 14.794 16.228 14.794 16.228L99.383 68.656S90.055 64.33 87.19 51.92c-2.862-12.408-.953-18.134-11.93-20.52z" fill="#e78724"/><path fill="#E78724" d="M128.42 278.87s3.575 21.855 17.893 21.855c12.167 0 15.752-18.46 15.752-22.275l-33.646.42zm-23.828-32.958c1.272-3.502 5.726-17.66 7.157-30.545 1.713-15.432 1.09-38.003 1.09-38.003s-3.82 14.795-7.163 17.186c-3.34 2.385-9.545 18.61-9.545 18.61s-3.324 24.156-4.906 32.275c4.378.877 8.064-1.703 13.365.477zm-34.576-95.75s8.11-2.866 10.5-20.522c2.385-17.66-2.866-32.932-2.866-32.932s.477 24.34-2.385 29.114c-2.866 4.77-5.25 6.203-8.592 12.41-3.343 6.206 1.43 10.02 3.343 11.93z"/><path fill="#FDC168" d="M79.7 35.576l-1.655-1.05c-4.883.166 1.656 1.05 1.656 1.05z"/><path fill="#FBA919" d="M140.786 44.846s-7.634-1.272-11.454-6.998c-3.82-5.728-14.636-17.184-31.88-17.312-17.24-.13-34.3 4.583-34.3 4.583l14.89 9.407c1.576-.05 4.33-.03 8.884.122 18.688.62 21.565 19.105 21.565 19.105l65.864-9.07"/><path fill="#FFF" d="M147.15 146.942s-8.91 8.91-22.592 6.044c-13.683-2.862-21.957-8.908-22.593-19.41-.636-10.5 2.866-14.635 2.866-14.635s15.273 4.778 22.595 11.14c7.318 6.364 12.726 16.546 19.727 16.863z"/><path fill="#C9C9C9" d="M136.368 143.76s-7.727 3.53-16.364.654c-11.306-3.77-12.06-15.53-12.06-15.53s-6.935 20.355 12.51 24.273c15.598 3.142 24.822-5.896 24.822-5.896l-8.908-3.5z"/><path fill="#463014" d="M110.896 57.172c-.004-.02-2.548-11.138-9.6-16.75-9.95-7.914-22.098-3.704-22.215-3.667l-1.762-5.45c.588-.19 14.473-4.565 27.27 4.43 12.872 9.046 14.417 17.246 14.55 18.152l-8.24 3.285zm-16.932 79.216s-4.166-5.964-3.417-12.523c.373-3.24 1.874-6.564 4.554-7.744 4.98-2.186 7.19 3.46 7.19 3.46s-7.01 1.73-8.325 16.81z"/><path fill="#463014" d="M139.707 145.478c.174.325.263.507.263.507s-12.994 9.752-26.31-.144c-7.13-5.3-6.456-18.415-4.272-23.977 5.68 1.287 10.496 3.607 14.522 6.316-5.088-4.54-9.542-7.885-9.53-7.96l-5.783-1.64-11.24-3.853c-.144.857-4.244 20.074 7.59 33.168 5.245 5.806 29.835 18.808 41.51-3.424l-6.75 1.01z"/><path fill="#463014" d="M138.49 146.907c7.316 11.135 25.775 4.772 25.457-7 0 0-12.334 6.807-23.23-5.726-6.363-7.315-26.75-27.49-54.395-20.785 19.092 4.198 44.367 21.64 52.168 33.513zM85.857 67.117c-6.303-5.23-1.605-10.082-2.103-16.023-.27-3.16-.52-6.144-1.563-7.79-5.8-9.158-19.48-11.937-19.62-11.966l-6.42-1.258 4.25-4.973c.55-.644 18.01-17.3 45.026-8.58 18.898 6.096 32.888 26.764 33.41 27.6l-9.477 4.455c-.11-.176-11.17-19.603-27.385-24.83-13.106-4.23-25.185-.207-30.36 2.43 5.5 2.196 12.692 6.195 17.025 13.036 2.043 3.23 2.388 7.3 2.72 11.238.44 5.215.85 10.138 4.69 13.326l-10.193 3.335z"/><path fill="#463014" d="M85.652 68.188l-.407-.337c-4.674-3.877-3.845-7.7-3.042-11.395.365-1.706.75-3.47.594-5.28-.255-3.04-.5-5.91-1.416-7.36-5.52-8.72-18.87-11.514-19-11.54L54.358 30.7l5.317-6.216c.097-.116 11.306-11.43 30.29-11.43 5.175 0 10.477.86 15.752 2.564 19.724 6.36 33.795 27.79 33.928 28l.57.91-11.21 5.273-.45-.712c-1.206-2.056-11.834-19.583-26.87-24.433-3.692-1.192-7.582-1.794-11.56-1.794-7.202 0-13.043 1.964-16.15 3.28 5.193 2.34 11.492 6.278 15.478 12.564 2.167 3.424 2.518 7.61 2.862 11.652.422 5.028.82 9.756 4.348 12.684l1.33 1.103-12.34 4.045z"/><path fill="#463014" d="M110.896 57.172c-.004-.02-2.548-11.138-9.6-16.75-9.95-7.914-22.098-3.704-22.215-3.667l-1.762-5.45c.588-.19 14.473-4.565 27.27 4.43 12.872 9.046 14.417 17.246 14.55 18.152l-8.24 3.285z"/><path fill="#463014" d="M110.212 58.472l-.248-1.094c-.026-.107-2.52-10.844-9.266-16.207-3.844-3.06-8.48-4.613-13.77-4.613-4.13 0-7.2.986-7.535 1.102l-.912.302-2.364-7.268.907-.293c.407-.13 4.092-1.28 9.305-1.28 6.877 0 13.38 2.02 18.81 5.834 13.196 9.273 14.807 17.848 14.945 18.794l.116.748-9.987 3.977zM86.928 34.65c5.652 0 10.83 1.738 14.96 5.024 5.99 4.77 8.807 13.19 9.66 16.21l6.49-2.587c-.587-2.292-3.175-9.17-14-16.78-5.178-3.64-11.135-5.484-17.71-5.484-3.608 0-6.41.574-7.796.924l1.17 3.62c1.36-.366 3.972-.927 7.226-.927zm58.787 260.832c-2.82 0-5.698-1.023-7.693-2.75-1.527-1.316-6.69-6.06-8.968-11.87-.85-2.173-.66-3.91.574-5.162.85-.857 2.614-1.882 6.195-1.882l2.548-.004c3.038-.003 8.15-.003 12.52-.003h4.19c2.722 0 4.675.59 5.8 1.74 1.44 1.48.98 3.366.575 4.36-.702 1.736-3.607 7.392-8.525 12.65-1.762 1.884-4.325 2.923-7.215 2.923zm2.955-147.92l-10.18-.655s2.602 4.588 4.288 10.522c1.904 6.71-1.74 16.52-1.74 16.52s13.575-15.37 7.633-26.39zm-12.71 174.805c-36.238-2.785-48.988-37.028-48.988-44.16l9.464.004-4.732-.002h4.732c.047 3.083 9.678 32.375 40.25 34.726l-.725 9.434z"/><path fill="#FFF" d="M125.777 261.016c-.566-3.273-.625-6.377.066-9.427-2.754-2.07-7.696-2.84-11.404-4.043-3.034-1.92-18.55 1.967-29.807-11.656-14.104-17.06-11.136-27.243-11.136-27.243-3.616 4.018-7.12 2.487-12.633 21.22-5.52 18.74 2.59 31.802 17.708 44.916 7.142 6.195 17.238 8.747 25.922 9.724-2.91-2.92 4.97-3.213 10.4-5.245-.434-4.384.29-8.64 3.56-12.067 1.97-2.066 4.507-3.3 7.138-4.285.147-.34.27-.653.41-.98-.086-.297-.17-.598-.226-.914z"/><path d="M113.23 273.11c-24.48-.032-45.78-16.84-41.664-52.18-3.205-4.255-7.693 8.58-7.693 8.58 1.284 23.583 3.83 57.035 41.465 55.947 4.58.93 8.716-2.263 10.267-4.363-2.13-5.828-1.98-6.18-2.374-7.984z" fill="#c9c9c9"/><path fill="#E78724" d="M209.393 203.437s16.225 24.815 28.133 42.425c1.842 2.724-11.908 2.913-11.908 2.913l-16.225-45.338zm-7.73-51.447s4.894 12.204 7.57 18.674c2.91 7.034 14 10.533 14 10.533s-5.75-6.03-5.75-21.306c0-6.407-8.272-8.955-8.272-8.955l-7.545 1.055z"/><path d="M276.906 31.4s-17.18-3.344-28.637 5.725c-11.455 9.067-14.797 16.228-14.797 16.228l19.306 15.302s9.33-4.325 12.195-16.735c2.862-12.408.954-18.134 11.93-20.52z" fill="#e78724"/><path fill="#E78724" d="M223.748 278.87s-3.58 21.855-17.894 21.855c-12.165 0-15.75-18.46-15.75-22.275l33.644.42zm23.827-32.958c-1.272-3.502-5.726-17.66-7.16-30.545-1.716-15.432-1.087-38.003-1.087-38.003s3.82 14.795 7.156 17.186c3.344 2.385 9.546 18.61 9.546 18.61s3.324 24.156 4.906 32.275c-4.377.877-8.06-1.703-13.36.477zm34.58-95.75s-8.116-2.866-10.5-20.522c-2.386-17.66 2.864-32.932 2.864-32.932s-.48 24.34 2.383 29.114c2.866 4.773 5.25 6.203 8.592 12.41 3.338 6.205-1.434 10.02-3.342 11.93z"/><path fill="#FDC168" d="M272.465 35.576l1.66-1.05c4.883.166-1.66 1.05-1.66 1.05z"/><path fill="#FBA919" d="M211.378 44.846s7.638-1.272 11.454-6.998c3.82-5.728 14.64-17.184 31.883-17.312 17.242-.13 34.3 4.583 34.3 4.583l-14.89 9.407c-1.576-.05-4.33-.03-8.888.122-18.685.62-21.562 19.105-21.562 19.105l-65.86-9.07"/><path fill="#FFF" d="M205.016 146.942s8.91 8.91 22.59 6.044c13.684-2.862 21.957-8.908 22.594-19.41.635-10.5-2.863-14.635-2.863-14.635s-15.275 4.778-22.593 11.14-12.726 16.546-19.728 16.863z"/><path fill="#C9C9C9" d="M215.796 143.76s7.73 3.53 16.364.654c11.31-3.77 12.062-15.53 12.062-15.53s6.932 20.355-12.514 24.273c-15.594 3.142-24.82-5.896-24.82-5.896l8.908-3.5z"/><path fill="#463014" d="M266.31 67.117c6.302-5.23 1.608-10.082 2.106-16.023.266-3.16.516-6.144 1.56-7.79 5.8-9.158 19.482-11.937 19.623-11.966l6.42-1.258-4.25-4.973c-.55-.644-18.01-17.3-45.03-8.58-18.895 6.096-32.885 26.764-33.405 27.6l9.472 4.455c.115-.176 11.176-19.603 27.39-24.83 13.104-4.23 25.183-.207 30.354 2.43-5.496 2.196-12.69 6.195-17.023 13.036-2.044 3.23-2.386 7.3-2.718 11.238-.44 5.215-.855 10.138-4.694 13.326l10.192 3.335zm16.83 76.333s-7.937-9.847-10.29-29.008c-.923-7.547.715-22.433 3.34-28.16-.477 14.08 3.105 28.16 3.105 28.16s2.414 26.144 3.845 29.008z"/><path d="M241.27 57.172c.005-.02 2.55-11.138 9.603-16.75 9.948-7.914 22.097-3.704 22.21-3.667l1.77-5.45c-.59-.19-14.474-4.565-27.274 4.43-12.875 9.046-14.416 17.246-14.554 18.152l8.244 3.285zm16.933 79.216s4.166-5.964 3.413-12.523c-.37-3.24-1.87-6.564-4.55-7.744-4.98-2.186-7.188 3.46-7.188 3.46s7.01 1.73 8.325 16.81z" fill="#463014"/><path fill="#463014" d="M212.46 145.478c-.173.325-.263.507-.263.507s12.99 9.752 26.307-.144c7.133-5.3 6.46-18.415 4.27-23.977-5.675 1.287-10.49 3.607-14.52 6.316 5.09-4.54 9.544-7.885 9.528-7.96l5.787-1.64 11.237-3.85c.144.856 4.243 20.073-7.595 33.167-5.244 5.806-29.834 18.808-41.506-3.424l6.754 1.006z"/><path fill="#463014" d="M213.674 146.907c-7.316 11.135-25.77 4.772-25.45-7 0 0 12.33 6.807 23.226-5.726 6.362-7.315 26.752-27.49 54.397-20.785-19.09 4.198-44.368 21.64-52.173 33.513zM250.94 65.415c-2.332-3.95-8.296-11.577-22.042-18.28-15.34-7.476-33.094-11.27-52.777-11.28v-.004h-.074v.004c-19.686.01-37.443 3.805-52.78 11.28-13.745 6.704-19.707 14.33-22.04 18.28l-1.002 1.325 11.77 2.62.374-.47.197-.434c.182-.778 1.76-4.978 14.884-11.378 14.03-6.843 30.393-10.312 48.632-10.318 18.242.005 34.6 3.474 48.628 10.317 13.125 6.4 14.708 10.6 14.888 11.378l.196.432.37.47 11.774-2.62-.996-1.322z"/><path fill="#463014" d="M266.31 67.117c6.302-5.23 1.608-10.082 2.106-16.023.266-3.16.516-6.144 1.56-7.79 5.8-9.158 19.482-11.937 19.623-11.966l6.42-1.258-4.25-4.973c-.55-.644-18.01-17.3-45.03-8.58-18.895 6.096-32.885 26.764-33.405 27.6l9.472 4.455c.115-.176 11.176-19.603 27.39-24.83 13.104-4.23 25.183-.207 30.354 2.43-5.496 2.196-12.69 6.195-17.023 13.036-2.044 3.23-2.386 7.3-2.718 11.238-.44 5.215-.855 10.138-4.694 13.326l10.192 3.335z"/><path fill="#463014" d="M231.975 54.495l.11-.748c.14-.946 1.753-9.52 14.946-18.794 5.43-3.814 11.934-5.832 18.81-5.832 5.217 0 8.9 1.15 9.31 1.28l.906.293-2.365 7.27-.912-.304c-.34-.116-3.41-1.103-7.537-1.103-5.29 0-9.922 1.552-13.766 4.615-6.746 5.366-9.243 16.102-9.266 16.208l-.248 1.092-9.985-3.975zm40.49-18.92l1.175-3.618c-1.386-.352-4.192-.924-7.8-.924-6.574 0-12.533 1.846-17.71 5.484-10.827 7.61-13.415 14.488-14.002 16.78l6.497 2.587c.85-3.02 3.664-11.442 9.656-16.21 4.137-3.286 9.308-5.024 14.96-5.024 3.25 0 5.868.56 7.226.926zM199.242 292.56c-4.917-5.258-7.826-10.915-8.53-12.653-.4-.99-.86-2.877.583-4.36 1.124-1.147 3.072-1.736 5.796-1.736h4.194c4.37 0 9.478 0 12.516.005l2.547.004c3.58 0 5.342 1.023 6.19 1.88 1.235 1.25 1.428 2.988.578 5.163-2.277 5.812-7.442 10.555-8.97 11.87-2 1.727-4.87 2.75-7.69 2.75-2.89 0-5.452-1.04-7.213-2.923zm4.256-144.998l10.176-.655s-2.6 4.588-4.285 10.522c-1.906 6.71 1.74 16.52 1.74 16.52s-13.578-15.37-7.633-26.39z"/><path fill="#E78724" d="M176.085 111.21c-6.49 0-14.95-.177-21.298-4.74 0 0 8.312 14.572 21.287 14.572l.01-1.844.012 1.844c12.976 0 21.287-14.57 21.287-14.57-6.348 4.56-14.815 4.74-21.298 4.74z"/><path fill="#463014" d="M193.952 111.14c-6.51 3.94-12.322 5.305-17.867 5.426-5.546-.12-11.357-1.486-17.867-5.425 0 0 9.48 11.57 17.82 11.658v.007c.014 0 .03-.004.046-.004.015 0 .03.005.047.005v-.007c8.34-.09 17.823-11.656 17.823-11.656zm22.255 211.227l-.726-9.435c30.567-2.35 40.198-31.643 40.248-34.726h9.464c.005 7.13-12.75 41.376-48.983 44.16z"/><path fill="#FFF" d="M226.39 261.016c.568-3.273.623-6.377-.067-9.427 2.758-2.07 7.696-2.84 11.404-4.043 3.032-1.92 18.552 1.967 29.81-11.656 14.103-17.06 11.13-27.243 11.13-27.243 3.62 4.018 7.122 2.487 12.638 21.22 5.52 18.74-2.595 31.802-17.712 44.916-7.14 6.195-17.238 8.747-25.922 9.724 2.91-2.92-4.967-3.213-10.394-5.245.434-4.384-.295-8.64-3.563-12.067-1.967-2.066-4.507-3.3-7.136-4.285-.148-.34-.275-.653-.41-.98.086-.297.168-.598.223-.914z"/><path d="M238.934 273.11c24.482-.032 45.78-16.84 41.662-52.18 3.205-4.255 7.696 8.58 7.696 8.58-1.455 22.836-8.73 57.044-41.464 55.947-4.585.93-8.72-2.263-10.267-4.363 2.127-5.83 1.98-6.178 2.374-7.984z" fill="#c9c9c9"/><path d="M223.863 237.902c5.094 14.95 8.977 21.192 8.977 21.192s-6.636-3.048-10.8-3.318c-.58-1.867-10.7-24.764-15.438-58.602 4.453 7.32 16.826 39.447 17.263 40.727zm14.395 25.43c-3.382-3.656-9.6-8.014-23.937-8.014-25.49-.042-50.983-.014-76.475 0-14.333 0-20.55 4.36-23.935 8.014-4.93 5.32-5.702 12.723-2.292 21.975 9.06 24.626 21.794 49.645 64.42 49.68v.004l.046-.002c.015 0 .03.004.047.004v-.003c42.623-.038 55.356-25.055 64.42-49.68 3.41-9.253 2.635-16.655-2.29-21.976zm-6.636 20.248c-4.317 12.366-15.92 42.298-55.54 42.35-39.624-.052-51.222-29.983-55.54-42.35-2.388-6.86-2.206-11.938.56-15.092 1.89-2.156 6.23-4.73 16.12-4.73l10.333-.003c19.88-.025 37.475-.018 57.057 0l10.33.004c9.893 0 14.232 2.57 16.122 4.727 2.763 3.157 2.947 8.23.558 15.092zm-4.795-27.688c-.034-2.983-.647-5.872-2.085-8.75-.102-.2-.22-.39-.326-.582 9.42-.08 20.27-.983 29.51-4.68 10.154-4.063 22.857-17.96 25.04-34.288 0 0 19.126 14.758 13.506 46.346-5.28 29.662-30.097 39.332-58.404 40.968-.015-.192 3.185-6.8 2.173-10.845 16.07 1.17 34.047-5.04 42.73-19.32 7.94-13.066 5.71-35.377 2.446-38.646-7.96 25.13-36.62 30.237-54.588 29.8zm41.603-77.56c-1.76 1.018-7.97 7.446-7.97 17.06-.004 4.82.477 29.04 2.866 43.836-3.59 2.332-6.09 2.828-9.664 5.205-1.79-17.136-3.076-41.972-2.474-51.998.683-11.43 6.8-19.1 12.474-22.37 9.83-6.074 24.9-13.6 25.28-23 .642-9.818-8.564-11.846-11.683-18.593-3.63-8.153-4.224-28.92-.006-34.193 2.103-2.63 7.742-11.463 6.122-17.4-.62-2.265-2.05-3.944-4.37-5.134-2.46-1.26-5.776-1.897-9.868-1.897-8.026 0-16.937 2.443-21.528 3.9-16.42 5.202-36.23 20.206-41.914 24.68-.162.126-.256.2-.274.21l-3.636 2.528 2.273-3.804c.144-.237 14.535-23.905 40.27-32.583 5.01-1.687 14.845-4.52 24.513-4.52 5.756 0 10.635 1.005 14.506 2.985 4.713 2.41 7.903 6.258 9.23 11.12 3.25 11.922-7.335 25.195-7.696 25.62-1.234 2.202-1.756 18.205 1.09 24.61 8.44 5.272 14.493 11.355 14.342 22.133-2.923 17.455-19.368 24.392-31.886 31.603zM112.802 264.95s14.314-.653 15.104-3.186c.585-1.867 12.924-30.752 17.66-64.59-11.978 22.17-16.595 47.94-32.764 67.775zM254.178 64.146l1.326-1.104c3.53-2.928 3.926-7.657 4.352-12.684.342-4.047.695-8.23 2.862-11.654 3.982-6.284 10.286-10.222 15.48-12.563-3.11-1.317-8.952-3.28-16.156-3.28-3.98 0-7.862.602-11.556 1.794-11.992 4.582-20.636 14.542-27.32 25.147l-11.21-5.27c11.83-13.072 21.058-24.165 34.495-28.912 5.277-1.704 10.578-2.564 15.758-2.564 18.983 0 30.193 11.317 30.29 11.43l5.316 6.217-8.022 1.573c-.132.027-13.478 2.82-19.005 11.54-.916 1.45-1.156 4.318-1.416 7.362-.15 1.81.23 3.574.6 5.28.8 3.696 1.63 7.52-3.047 11.396l-.406.337-12.338-4.046zM125.336 255.892c.038-2.983.647-5.872 2.09-8.75.1-.2.217-.39.325-.582-9.42-.08-20.27-.983-29.51-4.68-10.153-4.063-22.856-17.96-25.04-34.288 0 0-19.124 14.758-13.504 46.346C64.97 283.6 89.79 293.27 118.1 294.906c.014-.192-3.185-6.8-2.174-10.845-16.074 1.17-34.05-5.04-42.726-19.32-7.944-13.066-5.716-35.377-2.45-38.646 7.963 25.13 36.62 30.237 54.586 29.8zm-41.596-77.56c1.76 1.018 7.966 7.446 7.97 17.06 0 4.82-.48 29.04-2.866 43.836 3.59 2.332 6.09 2.828 9.663 5.205 1.79-17.136 3.072-41.972 2.474-51.998-.682-11.43-6.8-19.1-12.476-22.37-1.777-1.022-3.634-2.027-5.504-3.038-9.72-5.252-19.772-10.685-19.772-19.962 0-7.257 2.82-9.527 5.808-11.933l.322-.26c1.982-1.602 4.225-3.418 5.554-6.4 3.626-8.153 4.22-28.92 0-34.193-2.103-2.63-7.738-11.463-6.118-17.4.617-2.265 2.044-3.944 4.367-5.134 2.46-1.26 5.78-1.897 9.87-1.897 8.03 0 16.935 2.443 21.53 3.9 16.42 5.202 36.23 20.206 41.91 24.68l.276.21 3.634 2.528-2.274-3.804c-.14-.237-14.534-23.905-40.27-32.583-5.008-1.687-14.845-4.52-24.512-4.52-10.275-.047-20.993 4.626-23.737 14.105-3.25 11.922 7.334 25.195 7.695 25.62 1.234 2.202 1.757 18.205-1.094 24.61-1.244 1.78-2.678 2.753-4.236 3.937-4.022 3.036-10.104 7.623-10.104 18.196 0 14.467 14.662 22.31 26.445 28.618 1.933 1.04 3.778 2.024 5.446 2.985zM141.86 40.53c-.832-17.456 13.478-31.36 18.436-31.95.274 2.957-.276 14.495 4.68 18.043C166.42 17.2 171.3 6.81 190.57 0c-4.127 10.946-.55 20.115 1.152 24.365 13.16-11.944 22.025-9.97 22.025-9.97s-9.143 15.777-5.567 26.13c-26.416-2.072-66.192 2.806-66.32.003zm-56.003 26.59c-6.303-5.23-1.605-10.083-2.103-16.024-.27-3.16-.52-6.144-1.563-7.79-5.8-9.158-19.48-11.937-19.62-11.966l-6.42-1.258 4.25-4.973c.55-.644 18.01-17.3 45.026-8.58 18.898 6.096 32.888 26.764 33.41 27.6l-9.477 4.455c-.11-.176-11.17-19.603-27.385-24.83-13.106-4.23-25.185-.207-30.36 2.43 5.5 2.196 12.692 6.195 17.025 13.036 2.043 3.23 2.388 7.3 2.72 11.238.44 5.215.85 10.138 4.69 13.326zM69.023 143.45s7.94-9.847 10.293-29.008c.924-7.547-.717-22.433-3.343-28.16.477 14.08-3.102 28.16-3.102 28.16s-2.41 26.144-3.846 29.008z" fill="#463014"/></svg>